{"asset":{"version":"2.0","generator":"nexus2d-genmodels"},"scene":0,"scenes":[{"nodes":[0]}],"nodes":[{"mesh":0}],"meshes":[{"primitives":[{"attributes":{"POSITION":1,"NORMAL":2},"indices":0,"material":0}]}],"materials":[{"pbrMetallicRoughness":{"baseColorFactor":[0.61,0.15,0.69,1],"metallicFactor":0.1,"roughnessFactor":0.6},"doubleSided":true}],"accessors":[{"bufferView":0,"componentType":5123,"count":480,"type":"SCALAR"},{"bufferView":1,"componentType":5126,"count":166,"type":"VEC3","min":[-0.35,-0.45,-0.35],"max":[0.35,0.45,0.35]},{"bufferView":2,"componentType":5126,"count":166,"type":"VEC3"}],"bufferViews":[{"buffer":0,"byteOffset":0,"byteLength":960,"target":34963},{"buffer":0,"byteOffset":960,"byteLength":1992,"target":34962},{"buffer":0,"byteOffset":2952,"byteLength":1992,"target":34962}],"buffers":[{"byteLength":4944,"uri":"data:application/octet-stream;base64,"}]}