{"asset":{"version":"2.0","generator":"nexus2d-genmodels"},"scene":0,"scenes":[{"nodes":[0]}],"nodes":[{"mesh":0}],"meshes":[{"primitives":[{"attributes":{"POSITION":1,"NORMAL":2},"indices":0,"material":0}]}],"materials":[{"pbrMetallicRoughness":{"baseColorFactor":[0.18,0.49,0.2,1],"metallicFactor":0.1,"roughnessFactor":0.6},"doubleSided":true}],"accessors":[{"bufferView":0,"componentType":5123,"count":6912,"type":"SCALAR"},{"bufferView":1,"componentType":5126,"count":1225,"type":"VEC3","min":[-0.63,-0.18,-0.63],"max":[0.63,0.18,0.63]},{"bufferView":2,"componentType":5126,"count":1225,"type":"VEC3"}],"bufferViews":[{"buffer":0,"byteOffset":0,"byteLength":13824,"target":34963},{"buffer":0,"byteOffset":13824,"byteLength":14700,"target":34962},{"buffer":0,"byteOffset":28524,"byteLength":14700,"target":34962}],"buffers":[{"byteLength":43224,"uri":"data:application/octet-stream;base64,"}]}