{"asset":{"version":"2.0","generator":"nexus2d-genmodels"},"scene":0,"scenes":[{"nodes":[0]}],"nodes":[{"mesh":0}],"meshes":[{"primitives":[{"attributes":{"POSITION":1,"NORMAL":2},"indices":0,"material":0}]}],"materials":[{"pbrMetallicRoughness":{"baseColorFactor":[0.96,0.62,0.04,1],"metallicFactor":0.1,"roughnessFactor":0.6},"doubleSided":true}],"accessors":[{"bufferView":0,"componentType":5123,"count":240,"type":"SCALAR"},{"bufferView":1,"componentType":5126,"count":162,"type":"VEC3","min":[-0.4,-0.45,-0.4],"max":[0.4,0.45,0.4]},{"bufferView":2,"componentType":5126,"count":162,"type":"VEC3"}],"bufferViews":[{"buffer":0,"byteOffset":0,"byteLength":480,"target":34963},{"buffer":0,"byteOffset":480,"byteLength":1944,"target":34962},{"buffer":0,"byteOffset":2424,"byteLength":1944,"target":34962}],"buffers":[{"byteLength":4368,"uri":"data:application/octet-stream;base64,"}]}