{"asset":{"version":"2.0","generator":"nexus2d-genmodels"},"scene":0,"scenes":[{"nodes":[0]}],"nodes":[{"mesh":0}],"meshes":[{"primitives":[{"attributes":{"POSITION":1,"NORMAL":2},"indices":0,"material":0}]}],"materials":[{"pbrMetallicRoughness":{"baseColorFactor":[0.91,0.3,0.24,1],"metallicFactor":0.1,"roughnessFactor":0.6},"doubleSided":true}],"accessors":[{"bufferView":0,"componentType":5123,"count":4608,"type":"SCALAR"},{"bufferView":1,"componentType":5126,"count":825,"type":"VEC3","min":[-0.6,-0.6,-0.6],"max":[0.6,0.6,0.6]},{"bufferView":2,"componentType":5126,"count":825,"type":"VEC3"}],"bufferViews":[{"buffer":0,"byteOffset":0,"byteLength":9216,"target":34963},{"buffer":0,"byteOffset":9216,"byteLength":9900,"target":34962},{"buffer":0,"byteOffset":19116,"byteLength":9900,"target":34962}],"buffers":[{"byteLength":29016,"uri":"data:application/octet-stream;base64,"}]}